<svg xmlns="http://www.w3.org/2000/svg" xmlns:xlink="http://www.w3.org/1999/xlink" width="276" height="153.491" viewBox="0 0 276 153.491"><defs><clipPath id="a"><rect width="276" height="153.491" fill="#484848"/></clipPath></defs><g clip-path="url(#a)"><path d="M0,164.238c1.158-1.674,1.741-2.51,2.918-4.179a2.094,2.094,0,0,0,1.859.581c1.091-.251,1.71-1.4,1.315-3.145-1.6-7.062-2.4-10.592-4-17.653,2.094-.475,3.142-.707,5.24-1.163l3.8,17.474c1.031,4.743-1.421,8.259-5.28,9.146A8.015,8.015,0,0,1,0,164.238" transform="translate(0 -27.712)" fill="#484848"/><path d="M28.916,133.936l.892,4.845c-2.031.374-3.045.565-5.074.956,1.564,8.1,2.345,12.148,3.908,20.247-2.045.394-3.068.6-5.11,1.01-1.636-8.084-2.454-12.126-4.09-20.21-2.025.41-3.037.619-5.06,1.047-.407-1.928-.611-2.892-1.019-4.82,6.209-1.312,9.32-1.927,15.552-3.074" transform="translate(-2.67 -26.764)" fill="#484848"/><path d="M37.336,133.071a35.737,35.737,0,0,1,5.468-1.391c6.612-1.113,10.559,1.308,11.213,5.639.354,2.345-2.465,5.659-2.465,5.659.051.232,4.384,2.54,4.741,4.923.654,4.367-1.925,8.042-8.655,9.168a54.021,54.021,0,0,1-5.9.723q-2.2-12.36-4.4-24.721m6.838,9.037c.342-.022.865-.109,1.2-.165,2.577-.43,3.694-1.824,3.418-3.554-.27-1.693-1.9-2.693-4.5-2.258a8.523,8.523,0,0,0-1.082.255c.386,2.288.58,3.433.967,5.722m1.788,10.579c.3-.014.775-.094,1.032-.136,3.117-.521,4.2-1.98,3.886-3.962-.275-1.73-1.924-2.766-4.778-2.29a11.089,11.089,0,0,0-1.174.271l1.034,6.117" transform="translate(-7.461 -26.259)" fill="#484848"/><path d="M80.577,126.55c7.792-.913,12.605,2.946,13.416,11.338.815,8.427-2.943,13.166-9.638,13.941-2,.232-3.007.352-5.01.6q-1.58-12.675-3.158-25.35c1.756-.218,2.634-.325,4.391-.531m8.07,11.952c-.476-4.5-2.6-7.553-6.617-7.089.719,6.221,1.079,9.332,1.8,15.553,3.838-.443,5.344-3.493,4.818-8.464" transform="translate(-15.224 -25.262)" fill="#484848"/><path d="M110.015,149.323c-2.068.166-3.1.253-5.171.437l-2.266-25.446c2.159-.192,3.239-.283,5.4-.456l2.038,25.465" transform="translate(-20.498 -24.75)" fill="#484848"/><path d="M126.142,129.305c-.735-.911-1.75-1.987-3.081-1.907a2.019,2.019,0,0,0-1.965,2.132c.069,1.092.971,1.833,3.427,3.338,4.543,2.784,6.27,4.676,6.425,7.921a7.582,7.582,0,0,1-7.211,7.773,9.833,9.833,0,0,1-7.779-3.5c1.579-1.552,2.373-2.325,3.974-3.864,1.122,1.717,2.394,2.477,3.5,2.409a2.267,2.267,0,0,0,2.129-2.392c-.077-1.348-1.461-2.513-3.908-4.006-3.982-2.43-5.644-4.227-5.862-7.248a7.234,7.234,0,0,1,7.09-7.453,9.052,9.052,0,0,1,7.31,3.3c-1.631,1.393-2.441,2.092-4.053,3.5" transform="translate(-23.135 -24.478)" fill="#484848"/><path d="M153.161,121.553c.033,1.97.049,2.956.082,4.926-2.056.034-3.084.055-5.14.107.207,8.245.311,12.367.518,20.613-2.072.052-3.109.082-5.182.153-.281-8.243-.422-12.364-.7-20.608-2.056.07-3.083.11-5.138.2-.084-1.968-.126-2.953-.21-4.922,6.307-.269,9.462-.362,15.773-.466" transform="translate(-27.454 -24.289)" fill="#484848"/><path d="M166.81,146.952c-2,0-3,.01-5,.032q-.134-12.609-.27-25.217a23.875,23.875,0,0,1,4.488-.542c7.1-.023,11.687,3.98,11.594,9.745a9.181,9.181,0,0,1-3.775,7.25c1.607,3.52,2.4,5.283,3.957,8.813-2.294-.039-3.442-.053-5.736-.069-1.113-2.738-1.676-4.106-2.817-6.837a9.205,9.205,0,0,1-2.455.328c.006,2.6.008,3.9.014,6.5M167,126.26h-.229c.008,3.824.012,5.736.019,9.561,3.635-.373,5.636-1.846,5.659-4.984.018-2.3-2.06-4.583-5.449-4.578" transform="translate(-32.28 -24.224)" fill="#484848"/><path d="M192.219,147.356c-2.073-.069-3.109-.1-5.183-.148q.307-12.77.615-25.539c2.165.053,3.247.083,5.412.155q-.421,12.766-.844,25.532" transform="translate(-37.375 -24.313)" fill="#484848"/><path d="M201.332,122.439a35.545,35.545,0,0,1,5.62-.174c6.675.346,10,3.563,9.7,7.932-.162,2.367-3.623,4.991-3.623,4.991,0,.238,3.72,3.43,3.552,5.832-.307,4.4-3.617,7.434-10.41,7.077a53.4,53.4,0,0,1-5.9-.573q.532-12.543,1.064-25.085m4.7,10.3c.338.054.865.081,1.2.1,2.6.138,3.99-.981,4.1-2.73.1-1.712-1.269-3.041-3.9-3.18a8.793,8.793,0,0,0-1.107.015l-.3,5.8m-.547,10.715a10.219,10.219,0,0,0,1.035.09c3.145.166,4.518-1.023,4.639-3.027.106-1.748-1.275-3.117-4.156-3.27a10.847,10.847,0,0,0-1.2.01l-.316,6.2" transform="translate(-40.019 -24.423)" fill="#484848"/><path d="M225.9,141.438c.547-7.1.82-10.654,1.367-17.757,2.176.167,3.264.256,5.438.443-.617,7.17-.926,10.755-1.544,17.925a2.654,2.654,0,1,0,5.273.479c.683-7.165,1.023-10.747,1.705-17.911,2.173.206,3.259.315,5.431.542-.739,7.086-1.108,10.628-1.848,17.713a7.946,7.946,0,0,1-15.823-1.435" transform="translate(-45.136 -24.715)" fill="#484848"/><path d="M267.873,127.928c-.266,1.952-.4,2.929-.667,4.881-2.042-.279-3.063-.414-5.107-.675-1.047,8.181-1.57,12.271-2.617,20.452-2.06-.263-3.092-.39-5.155-.636.974-8.19,1.46-12.285,2.433-20.476-2.045-.242-3.069-.36-5.116-.586.216-1.958.324-2.937.539-4.9,6.283.692,9.421,1.079,15.689,1.936" transform="translate(-50.285 -25.176)" fill="#484848"/><path d="M290.282,144.549c-1.248,7.266-5.737,12.036-10.874,11.234s-7.952-6.713-6.926-14.013c1.015-7.228,5.807-12.275,10.906-11.479s8.128,7.065,6.893,14.258m-5.293-.811c.714-4.395-.319-8.04-2.394-8.363s-4.17,2.833-4.829,7.236c-.649,4.331.314,7.942,2.409,8.269s4.112-2.819,4.815-7.142" transform="translate(-54.407 -26.019)" fill="#484848"/><path d="M302.4,159.472c-1.974-.372-2.961-.554-4.938-.908q2.228-12.411,4.456-24.821a24.064,24.064,0,0,1,4.527.311c7.013,1.313,10.79,6.109,9.618,11.755a9.167,9.167,0,0,1-5.085,6.41c.927,3.761,1.379,5.641,2.257,9.4-2.258-.471-3.388-.7-5.649-1.147-.587-2.9-.886-4.348-1.5-7.247a9.262,9.262,0,0,1-2.483-.138c-.482,2.553-.723,3.83-1.2,6.383m4.059-20.292-.226-.042c-.708,3.758-1.063,5.637-1.771,9.4,3.655.318,5.906-.753,6.517-3.831.447-2.255-1.175-4.89-4.52-5.522" transform="translate(-59.441 -26.724)" fill="#484848"/><path d="M335.25,147.391c-.454-1.08-1.135-2.4-2.443-2.7a2.026,2.026,0,0,0-2.495,1.495c-.238,1.068.424,2.032,2.377,4.167,3.61,3.949,4.751,6.251,3.993,9.409a7.611,7.611,0,0,1-9.143,5.438,9.9,9.9,0,0,1-6.531-5.542c1.957-1.047,2.941-1.566,4.916-2.6.6,1.964,1.619,3.05,2.71,3.3a2.273,2.273,0,0,0,2.725-1.7c.3-1.315-.709-2.822-2.653-4.943-3.165-3.45-4.266-5.641-3.632-8.6.8-3.711,4.747-6.118,8.93-5.167a9.131,9.131,0,0,1,6.141,5.22c-1.967.879-2.945,1.323-4.9,2.219" transform="translate(-64.146 -27.924)" fill="#484848"/><path d="M128.637,180.629h-.527l-.165-.627c-.3-1.087-.659-1.483-3-1.483h-1.812v3.691c2.57,0,2.768-.231,2.768-1.944h.626v4.91H125.9c0-1.713-.2-1.944-2.768-1.944v1.516c0,2.34.3,2.735,2.01,2.735h.461c2.34,0,2.7-.4,3-1.483l.165-.593h.494l-.2,3.1H118.718v-.627c1.845,0,2.142-.428,2.142-2.768v-4.218c0-2.341-.3-2.736-2.142-2.736v-.626h9.689Z" transform="translate(-23.723 -35.476)" fill="#484848"/><path d="M139.426,188.827a4.987,4.987,0,0,1-3-1.12,2.373,2.373,0,0,0-.527,1.12h-.626v-4.547h.692a3.606,3.606,0,0,0,3.69,3.46,1.7,1.7,0,0,0,1.912-1.581c0-.857-.759-1.516-2.109-2.143l-1.845-.89a3.533,3.533,0,0,1-2.307-3.163,3.224,3.224,0,0,1,3.493-2.933,4.309,4.309,0,0,1,2.6.857,1.864,1.864,0,0,0,.4-.89h.627v3.889h-.692c-.231-1.549-1.088-2.834-2.8-2.834-.955,0-1.812.527-1.812,1.352,0,.856.692,1.318,2.273,2.043l1.846.89a3.4,3.4,0,0,1,2.175,2.966,3.711,3.711,0,0,1-3.987,3.526" transform="translate(-27.031 -35.368)" fill="#484848"/><path d="M150.487,178.52c-2.373,0-2.735.4-3,1.483l-.165.627h-.56l.264-3.1h12.127l.23,3.1h-.527l-.165-.627c-.3-1.087-.627-1.483-3-1.483h-1.483v6.591c0,2.34.3,2.768,2.142,2.768v.627h-6.558v-.627c1.812,0,2.142-.428,2.142-2.768V178.52Z" transform="translate(-29.327 -35.476)" fill="#484848"/><path d="M163.115,189.146a1.646,1.646,0,0,1,1.615-1.648,1.624,1.624,0,0,1,1.615,1.648,1.577,1.577,0,0,1-1.615,1.615,1.6,1.6,0,0,1-1.615-1.615" transform="translate(-32.595 -37.467)" fill="#484848"/><path d="M180.412,178.528V177.8l4.647-.89v8.074c0,2.34.3,2.768,2.141,2.768v.627h-6.557v-.627c1.845,0,2.142-.428,2.142-2.768v-3.922c0-2.34-.56-2.57-2.373-2.537" transform="translate(-36.051 -35.352)" fill="#484848"/><path d="M196.828,177.037c1.648,0,4.647,1.055,4.647,5.372,0,3.131-1.748,6.459-4.911,6.459-1.944,0-3.3-.889-3.3-1.615,0-.494.2-.758.758-.758.593,0,.988,1.285,2.5,1.285,1.78,0,2.6-2.438,2.8-4.515a3.622,3.622,0,0,1-2.537.955,3.882,3.882,0,0,1-4.152-3.624c0-1.945,1.879-3.56,4.185-3.56m.231,6.163a2.543,2.543,0,0,0,2.307-1.285c-.034-2.472-1.286-3.856-2.538-3.856-1.45,0-2.076,1.45-2.076,2.538a2.522,2.522,0,0,0,2.307,2.6" transform="translate(-38.495 -35.377)" fill="#484848"/><path d="M211.243,177.037c1.648,0,4.647,1.055,4.647,5.372,0,3.131-1.748,6.459-4.911,6.459-1.944,0-3.3-.889-3.3-1.615,0-.494.2-.758.758-.758.593,0,.988,1.285,2.5,1.285,1.78,0,2.6-2.438,2.8-4.515a3.622,3.622,0,0,1-2.537.955,3.882,3.882,0,0,1-4.152-3.624c0-1.945,1.879-3.56,4.185-3.56m.231,6.163a2.543,2.543,0,0,0,2.307-1.285c-.034-2.472-1.286-3.856-2.538-3.856-1.45,0-2.076,1.45-2.076,2.538a2.522,2.522,0,0,0,2.307,2.6" transform="translate(-41.376 -35.377)" fill="#484848"/><path d="M224.6,179.311c-.988,0-1.944.264-2.142,1.285l-.165.594h-.659l.627-3.658h7.842v.857l-2.933,3.262a4.014,4.014,0,0,1,3.2,3.559c0,1.977-1.977,3.723-4.614,3.723s-3.987-1.516-3.987-2.339a.65.65,0,0,1,.725-.692c.923,0,.759,1.977,3.262,1.977a2.391,2.391,0,0,0,2.439-2.669,2.447,2.447,0,0,0-2.01-2.5c-.132.132-.264.362-.594.758a1.2,1.2,0,0,1-.823.594c-.594,0-.955-.659-.33-1.252l3.625-3.494Z" transform="translate(-44.289 -35.475)" fill="#484848"/></g><g clip-path="url(#a)"><path d="M170.8,11.318a7.613,7.613,0,0,0-5.512,2.457,21.2,21.2,0,0,0-3.149,4.613,6.666,6.666,0,0,1-1.289,1.822,5.924,5.924,0,0,0,2.128,4.273c3.775,3.676,11.64,6.235,16.268,6.556a23.007,23.007,0,0,0-3.2-9.04,19.738,19.738,0,0,0-4.795-5.87A3.212,3.212,0,0,1,169.66,13.5a2.792,2.792,0,0,1,1.136-2.183M153.51,32.1a11.113,11.113,0,0,0-1.692,2.009,11.438,11.438,0,0,0-2.1,6.034,6.181,6.181,0,0,0,.133,1.3l.146.691-.074.027c.98,2.353,4.088,5.795,9.052,8.858,4.591,2.833,16.5,8.757,29.832,4.106l0-.016a16.171,16.171,0,0,0,.1-1.9c.033-2.427-.571-6.373-3.036-8.007a20.483,20.483,0,0,1-5.34.683c-9.456,0-20.5-5.621-26.662-14.093-.113.084-.237.185-.368.3m1.378-3.137a2.239,2.239,0,0,0,.274,1.248l1.041,1.508-.1-.01c6.987,8.723,19.875,14.051,28.959,11.823,0-.082,0-.162,0-.248a17.578,17.578,0,0,0-1.226-6.2,9.165,9.165,0,0,0-3.071-4.186c-.171.008-.343.014-.527.014-4.882,0-14.131-2.809-18.546-7.11a8.264,8.264,0,0,1-2.613-4.527,10.852,10.852,0,0,0-4.2,7.691M169.836,65.14q-.822.016-1.609.015c-16.927,0-22.034-5.162-23.555-7.917a2.231,2.231,0,0,0-.067.534c0,.958.5,2.347,2.137,3.92l.345.326-.024.1c4.983,4.343,29.586,7.594,40.3-.559l-.022-.106.431-.236c.2-.167.416-.33.609-.507l.065.071a4.084,4.084,0,0,0,1.352-2.359c-3.237,4.02-8.274,6.5-19.963,6.718M146.755,45.674a15.5,15.5,0,0,0-1.461,6.266,8.19,8.19,0,0,0,.588,3.226l.344.8-.088.031c.976,2,5.359,7.626,23.663,7.294,11.03-.207,15.682-2.462,18.613-6.111a32.63,32.63,0,0,1-9.8,1.506,40.472,40.472,0,0,1-20.6-6.107c-4.711-2.907-8.3-6.466-9.665-9.44a9.871,9.871,0,0,0-1.6,2.535M166,0a37.18,37.18,0,0,0-21.16,67.753,15.447,15.447,0,0,1,.12-5.216,7.073,7.073,0,0,1-2.323-4.766,3.341,3.341,0,0,1,1.155-2.649,10.21,10.21,0,0,1-.468-3.183,17.05,17.05,0,0,1,1.609-6.926,9.392,9.392,0,0,1,2.842-3.823c0-.021-.009-.043-.01-.064l.048,0a8.631,8.631,0,0,1-.058-.983,13.881,13.881,0,0,1,4.347-9.262,7.7,7.7,0,0,1,.954-.719,4.861,4.861,0,0,1-.136-1.2,12.057,12.057,0,0,1,6.553-9.977.41.41,0,0,1,.035-.033,2.092,2.092,0,0,0,.214-.266,11.491,11.491,0,0,0,.652-1.074,34.155,34.155,0,0,1,1.978-3.24,10.313,10.313,0,0,1,8.607-4.8,12.416,12.416,0,0,1,1.29.074,1.531,1.531,0,0,1,.8.3,1.042,1.042,0,0,1,.414.814,2.068,2.068,0,0,1-.754,1.332,6.77,6.77,0,0,1-.575.5,1.13,1.13,0,0,0-.5.909,1.541,1.541,0,0,0,.774,1.223,20.919,20.919,0,0,1,5.386,6.477,24.36,24.36,0,0,1,3.436,9.816l.018,0,.008.057a10.24,10.24,0,0,1,4.443,5.423,19.073,19.073,0,0,1,1.343,6.785c0,.176,0,.35-.011.516,3.466,2.357,3.823,6.832,3.858,9.414,0,.59-.026,1.091-.054,1.453a1.26,1.26,0,0,1,.13.109,2.234,2.234,0,0,1,.54.765,4.654,4.654,0,0,1,.368,1.924,5.848,5.848,0,0,1-2.365,4.807,14.988,14.988,0,0,1,.238,2.594c0,.337-.018.659-.043.977A37.182,37.182,0,0,0,166,0m1.674,67.55c-8.934,0-17.525-2.025-20.827-4.434a14.409,14.409,0,0,0-.2,2.459,12.515,12.515,0,0,0,.507,3.656,37.154,37.154,0,0,0,40.264-1.66,10.233,10.233,0,0,0,.354-2.709,13.792,13.792,0,0,0-.223-2.3C182.531,66.182,175,67.55,167.676,67.55" transform="translate(-25.741)" fill="#484848"/><path d="M61.734,64.964c-.019-.321-.563-.935-2.48-.935a.929.929,0,0,0-.932.523c.041.4,1.3,8.312,2.8,17.645.765.234,1.545.434,2.335.607-.038-.39-.078-.78-.115-1.165-1-10.048-1.611-16.229-1.611-16.674m18.718-.935a3.04,3.04,0,0,0-2.793,1.555c0,.39-.448,6.7-1.2,17.114a29.184,29.184,0,0,0,3.3-.976c1.562-7.664,3-14.843,3.023-15.493,0-1.023-1.651-2.2-2.325-2.2m-9.027-9.767a39.022,39.022,0,0,0,4.821-.291c5.893-.646,7.759-1.836,8.82-3.1a31.984,31.984,0,0,1-6.5.638c-9.228,0-19.114-3.263-21.485-7a4.017,4.017,0,0,0-2.4,2.7,3.45,3.45,0,0,0,.157,2.671c3.778,2.792,9.808,4.392,16.6,4.392m-2.184,9.631c-.078,0-.158,0-.236,0a3.957,3.957,0,0,0-3.256,1.664c.011.366.623,7.628,1.271,15.317q.107,1.275.21,2.5c.824.07,1.656.114,2.5.114.683,0,1.358-.032,2.028-.078.667-8.977,1.274-17.4,1.274-17.877,0-.449-1.832-1.533-3.79-1.636M82.337,27.755,79.979,38.389a11.106,11.106,0,0,1,2.473,3.819c1.6.3,2.971,1.894,3.768,3.393a7.137,7.137,0,0,1,.886,4.631,35.034,35.034,0,0,1,.025,8.652c-.214,1.331-1.888,10.152-3.826,20.366-.062.328-.126.66-.188.991a29.289,29.289,0,0,0-.781-52.486m3.322,30.817c-3.749,2.254-10.031,3.288-16.1,3.288A48.307,48.307,0,0,1,62,61.289a19.5,19.5,0,0,1-6.709-2.116c.491,2.287,2.453,12.206,4.351,22.524.057.021.114.039.171.059-1.469-9.154-2.716-16.992-2.716-17.215A2.032,2.032,0,0,1,59.254,62.8a4.319,4.319,0,0,1,3.182.973,1.728,1.728,0,0,1,.527,1.215c.008.46.819,8.629,1.6,16.529.052.517.1,1.026.153,1.532q.628.108,1.265.189c-.064-.764-.128-1.521-.19-2.265-.814-9.655-1.274-15.132-1.274-15.443,0-1.2,2.258-2.87,4.482-2.87.1,0,.2,0,.3.006,2.024.1,4.959,1.273,4.959,2.864,0,.517-.6,8.845-1.259,17.769q1.115-.125,2.2-.333c.618-8.546,1.227-16.978,1.228-17.437,0-.833,1.518-2.729,4.018-2.729,1.338,0,3.555,1.664,3.555,3.434,0,.617-1.128,6.31-2.889,14.954.108-.046.212-.1.319-.144l.393-2.072c1.856-9.778,3.608-19.014,3.818-20.323l.01-.075M79.2,37.729l2.3-10.355c-.269-.118-.539-.231-.811-.341L78.577,37.321a6.418,6.418,0,0,1,.62.408M53.429,50.435a5.006,5.006,0,0,1-.194-3.668,5.5,5.5,0,0,1,3.272-3.67c.4-3.222,4.951-6.473,8.8-7,1.035-2,3.344-4.523,5.768-4.529h.192l.168.092a2.168,2.168,0,0,1,.9,1.669c.261,1.274.586,2.859,4.3,3.31a5.242,5.242,0,0,1,1.1.286L79.827,26.7A29.292,29.292,0,0,0,57.986,81.026C55.95,70,53.9,59.688,53.738,59.122a31.589,31.589,0,0,1-.31-8.687m11.615-12.78c-4.174.739-7.133,4.284-7.062,5.981l0,.049.027-.014c2.2,4.046,16.95,8.491,27.684,5.8a6.087,6.087,0,0,0-.8-3.169A4.734,4.734,0,0,0,82.1,43.684l0,.04q-.735.038-1.453.038c-8.231,0-14.717-3.7-15.607-6.107m11.39.474c-4.775-.579-5.3-3.126-5.577-4.5-.035-.17-.078-.383-.123-.531-1.578.262-3.454,2.23-4.252,4.006l-.168.374c.972,1.636,6.561,5.159,14.647,5.047-.859-2.032-2.421-4.1-4.527-4.4M62.191,60.075c7.7,1.239,18.918.418,23.619-3.072l.01.014a39.861,39.861,0,0,0-.009-4.757c-1.434,1.452-3.771,2.586-9.388,3.2a39.981,39.981,0,0,1-5,.3c-3.975,0-11.206-.551-16.634-4.087a41.9,41.9,0,0,0,.156,5.639c1,1.175,3.607,2.176,7.243,2.761" transform="translate(-8.081 -4.977)" fill="#484848"/><path d="M288.339,40.028c.727-1.155,1.4-2.209,1.939-3.061a30.08,30.08,0,0,0-4.684-5.415c-.308,1.111-.987,3.555-1.767,6.343,1.563.78,3.1,1.514,4.512,2.132m4.535,1.665a29.844,29.844,0,0,0-1.937-3.7c-.46.724-.995,1.568-1.565,2.474a24.808,24.808,0,0,0,3.5,1.224m-10.053-4.3c.679-2.427,1.332-4.779,1.847-6.64-.087-.074-.174-.148-.263-.221a37.343,37.343,0,0,0-4.666-1.468c-.062.643-.316,3.2-.707,6.345,1.223.658,2.506,1.331,3.79,1.984m4.929,3.577c-1.359-.6-2.8-1.283-4.225-1.992-.64,2.284-1.323,4.705-1.912,6.761.8.442,1.618.867,2.431,1.261,1.136-1.9,2.473-4.062,3.706-6.029M277.838,43.5c.865.543,1.8,1.111,2.784,1.672.57-1.995,1.237-4.355,1.9-6.709-1.269-.643-2.5-1.289-3.635-1.895-.292,2.255-.647,4.71-1.045,6.931m-3.482-15c-.04,1.038-.152,2.493-.3,4.135,1.119.644,2.466,1.4,3.929,2.2.41-3.35.661-5.945.667-6.018a13.394,13.394,0,0,0-4.294-.314m9.119,19.449c-.731-.354-1.46-.732-2.178-1.123-.426,1.475-.779,2.669-1,3.355a16.167,16.167,0,0,1,1.579.6c.387-.744.943-1.725,1.6-2.837m4.816,16.512a9.444,9.444,0,0,0-2.327-8.489c-2.809-3.2-7.576-5.116-11.335-4.561l-.685.1-.026-.058a14.644,14.644,0,0,0-9.753,6.224c-2.645,4.083-2.223,8.772,1.143,12.891,10.017-.45,18.587-2.7,22.983-6.109M276.35,49.48a13.765,13.765,0,0,1,2.887.4c.216-.674.6-1.961,1.068-3.6-.939-.533-1.847-1.075-2.688-1.6a27.481,27.481,0,0,1-1.267,4.8M261.585,72.516c-7.071,0-15.458-.933-21.734-3.312a29.925,29.925,0,0,0,43,8.831,29.244,29.244,0,0,0,4.926-10.969c-5.656,3.438-15.2,5.45-26.2,5.45m11.652-32.09c.315.227,1.688,1.208,3.594,2.437.382-2.21.725-4.64,1.006-6.853-1.762-.955-3.171-1.748-3.9-2.16-.207,2.132-.462,4.465-.7,6.576m19.335,2.321a27.952,27.952,0,0,1-3.791-1.338c-1.235,1.97-2.584,4.146-3.728,6.058a25.89,25.89,0,0,0,2.886,1.119c1.427-1.794,3.086-3.882,4.633-5.839m-42.947,7.56c1.88-4.366,6.917-7.557,12.565-7.866a13.779,13.779,0,0,1,8.675,2.309c.52-4.323,1.656-14.079,1.656-16.973v-.655l.617-.218a12.416,12.416,0,0,1,5.9.118,29.926,29.926,0,0,0-43.512,26.667c0,.891.046,1.771.122,2.642.272-.348.558-.692.866-1.028a14.722,14.722,0,0,1,13.113-5m44.2-6.156c-2.948,3.729-6.241,7.855-7.554,9.5a14.668,14.668,0,0,1,1.09,1.107,11.29,11.29,0,0,1,2.575,10.788,32.258,32.258,0,0,1-2.823,8.793,29.9,29.9,0,0,0,6.713-30.187m-9.339,4.276c-.66,1.12-1.222,2.107-1.608,2.847a16.443,16.443,0,0,1,1.957,1.207c.527-.659,1.363-1.708,2.369-2.97a28.866,28.866,0,0,1-2.719-1.083m-22.19-4.139c-4.961.272-9.355,3.01-10.96,6.746a15.308,15.308,0,0,1,9.9,9.8,12.277,12.277,0,0,1,1.694-3.956,15.958,15.958,0,0,1,10.31-6.811,11.245,11.245,0,0,0-10.946-5.783m10.269,1.863a13.363,13.363,0,0,1,2.476,3.356c.075-.006.153-.006.229-.01l-.112-.061a22.644,22.644,0,0,0,1.465-5.385c-1.572-1.006-2.83-1.876-3.525-2.369-.221,1.9-.416,3.511-.533,4.469M263.5,70.64a14.378,14.378,0,0,1-1.725-3.153,23.227,23.227,0,0,1-.579,3.173c.131,0,.259,0,.39,0,.643,0,1.279-.01,1.913-.025M250.83,52.425l-.006.019-.813-.18c-4.268-.948-8.806.657-12.135,4.291a14.267,14.267,0,0,0-1.858,2.534,29.737,29.737,0,0,0,2.412,7.478c4.949,2.373,12.621,3.877,21.245,4.071,3.318-12.422-5.225-16.908-8.845-18.214" transform="translate(-47.064 -4.748)" fill="#484848"/></g></svg>